<svg width="23" height="23" viewBox="0 0 23 23" fill="none" xmlns="http://www.w3.org/2000/svg">
<path d="M21.125 5.43709C20.4203 5.7428 19.6751 5.9449 18.9125 6.03709C19.717 5.55645 20.3199 4.80032 20.6094 3.90896C19.8533 4.35902 19.0257 4.67611 18.1625 4.84646C17.5855 4.22075 16.8172 3.80424 15.9779 3.66226C15.1387 3.52028 14.2761 3.66086 13.5254 4.06195C12.7747 4.46304 12.1784 5.10196 11.8299 5.87849C11.4815 6.65503 11.4006 7.52526 11.6 8.35271C10.0713 8.27539 8.57604 7.87735 7.21124 7.18446C5.84644 6.49156 4.64267 5.5193 3.67812 4.33084C3.33982 4.92162 3.16205 5.59067 3.1625 6.27146C3.1613 6.90369 3.31645 7.52641 3.61415 8.08418C3.91184 8.64194 4.34283 9.11744 4.86875 9.46834C4.25748 9.4517 3.65927 9.28768 3.125 8.99021V9.03709C3.12958 9.92292 3.43999 10.78 4.00373 11.4633C4.56747 12.1466 5.34993 12.6142 6.21875 12.7871C5.8843 12.8889 5.53707 12.9425 5.1875 12.9465C4.94552 12.9436 4.70415 12.9217 4.46562 12.8808C4.71304 13.6428 5.19183 14.3088 5.83538 14.786C6.47893 15.2632 7.25523 15.5279 8.05625 15.5433C6.70363 16.6076 5.03364 17.1885 3.3125 17.1933C2.99913 17.1944 2.686 17.1756 2.375 17.1371C4.13228 18.2717 6.18014 18.874 8.27187 18.8715C9.71534 18.8864 11.1473 18.6137 12.4842 18.069C13.821 17.5244 15.036 16.7189 16.058 15.6994C17.08 14.68 17.8887 13.4671 18.4368 12.1317C18.9848 10.7962 19.2613 9.36495 19.25 7.92146V7.42459C19.9856 6.87597 20.6201 6.20342 21.125 5.43709Z" fill="#C3C5AC"/>
</svg>
