<svg width="23" height="23" viewBox="0 0 23 23" fill="none" xmlns="http://www.w3.org/2000/svg">
<path d="M11.75 2.10645C9.52383 2.1064 7.3703 2.89852 5.67477 4.34108C3.97924 5.78363 2.85237 7.78246 2.49581 9.97988C2.13925 12.1773 2.57628 14.4299 3.72868 16.3346C4.88108 18.2392 6.67366 19.6716 8.78561 20.3755C9.25436 20.458 9.42967 20.1768 9.42967 19.9302C9.42967 19.708 9.41842 18.9693 9.41842 18.1846C7.06249 18.6177 6.45311 17.6099 6.26561 17.083C6.05762 16.57 5.7278 16.1153 5.30467 15.7583C4.97655 15.583 4.5078 15.1489 5.29249 15.1377C5.59237 15.1701 5.88001 15.2744 6.13102 15.4417C6.38202 15.609 6.58899 15.8343 6.73436 16.0986C6.86255 16.329 7.03492 16.5317 7.24161 16.6953C7.4483 16.8589 7.68524 16.9801 7.93884 17.0519C8.19245 17.1238 8.45775 17.1449 8.71952 17.114C8.9813 17.0831 9.23442 17.0009 9.46436 16.8721C9.50497 16.3952 9.71754 15.9494 10.0625 15.6177C7.97655 15.3833 5.79686 14.5752 5.79686 10.9893C5.78358 10.0574 6.1274 9.15571 6.7578 8.46926C6.47121 7.65946 6.50475 6.77078 6.85155 5.98488C6.85155 5.98488 7.63624 5.73926 9.42967 6.94582C10.9637 6.5239 12.5832 6.5239 14.1172 6.94582C15.9097 5.72707 16.6953 5.98488 16.6953 5.98488C17.0422 6.77076 17.0757 7.65947 16.789 8.46926C17.4214 9.15452 17.7655 10.057 17.75 10.9893C17.75 14.5864 15.5581 15.3833 13.4722 15.6177C13.6959 15.8445 13.8682 16.1167 13.9774 16.416C14.0866 16.7152 14.1301 17.0345 14.105 17.3521C14.105 18.6064 14.0937 19.6143 14.0937 19.9302C14.0937 20.1768 14.269 20.4693 14.7378 20.3755C16.8459 19.6658 18.6331 18.2299 19.7804 16.3243C20.9278 14.4187 21.3606 12.1674 21.0016 9.97224C20.6426 7.77706 19.5151 5.78091 17.8205 4.34011C16.1258 2.89932 13.9743 2.10765 11.75 2.10645Z" fill="#C3C5AC"/>
</svg>
