<svg width="23" height="23" viewBox="0 0 23 23" fill="none" xmlns="http://www.w3.org/2000/svg">
<path d="M19.191 1.87513H3.30977C3.13125 1.87265 2.95399 1.90536 2.78811 1.9714C2.62223 2.03743 2.47099 2.13549 2.34301 2.25999C2.21504 2.38448 2.11284 2.53296 2.04226 2.69695C1.97167 2.86094 1.93409 3.03724 1.93164 3.21576V19.2845C1.93409 19.463 1.97167 19.6393 2.04226 19.8033C2.11284 19.9673 2.21504 20.1158 2.34301 20.2403C2.47099 20.3648 2.62223 20.4628 2.78811 20.5289C2.95399 20.5949 3.13125 20.6276 3.30977 20.6251H19.191C19.3695 20.6276 19.5468 20.5949 19.7127 20.5289C19.8785 20.4628 20.0298 20.3648 20.1578 20.2403C20.2857 20.1158 20.3879 19.9673 20.4585 19.8033C20.5291 19.6393 20.5667 19.463 20.5691 19.2845V3.21576C20.5667 3.03724 20.5291 2.86094 20.4585 2.69695C20.3879 2.53296 20.2857 2.38448 20.1578 2.25999C20.0298 2.13549 19.8785 2.03743 19.7127 1.9714C19.5468 1.90536 19.3695 1.87265 19.191 1.87513ZM7.58477 17.5689H4.77227V9.13138H7.58477V17.5689ZM6.17852 7.95013C5.79064 7.95013 5.41864 7.79605 5.14437 7.52177C4.8701 7.2475 4.71602 6.87551 4.71602 6.48763C4.71602 6.09975 4.8701 5.72776 5.14437 5.45349C5.41864 5.17922 5.79064 5.02513 6.17852 5.02513C6.38448 5.00177 6.59306 5.02218 6.79059 5.08502C6.98812 5.14786 7.17015 5.25172 7.32476 5.38978C7.47937 5.52785 7.60307 5.69702 7.68777 5.88621C7.77247 6.0754 7.81625 6.28035 7.81625 6.48763C7.81625 6.69492 7.77247 6.89986 7.68777 7.08905C7.60307 7.27824 7.47937 7.44741 7.32476 7.58548C7.17015 7.72355 6.98812 7.8274 6.79059 7.89024C6.59306 7.95308 6.38448 7.97349 6.17852 7.95013ZM17.7285 17.5689H14.916V13.0408C14.916 11.9064 14.5129 11.1658 13.491 11.1658C13.1748 11.1681 12.8668 11.2673 12.6087 11.45C12.3505 11.6327 12.1546 11.8901 12.0473 12.1876C11.9739 12.408 11.9421 12.64 11.9535 12.872V17.5595H9.14102V9.122H11.9535V10.3126C12.209 9.86929 12.5806 9.50406 13.0283 9.25626C13.476 9.00846 13.9828 8.88749 14.4941 8.90638C16.3691 8.90638 17.7285 10.1158 17.7285 12.7126V17.5689Z" fill="#C3C5AC"/>
</svg>
