<svg width="160" height="26" viewBox="0 0 160 26" fill="none" xmlns="http://www.w3.org/2000/svg">
<path d="M36 19.7255L40.0124 6H43.8243L47.8166 19.7255H45.5897L44.6669 16.4902H39.1698L38.247 19.7255H36ZM39.7115 14.5294H44.1252L42.0788 7.31373H41.7578L39.7115 14.5294Z" fill="black"/>
<path d="M53.8721 20C53.0562 20 52.3006 19.8039 51.6051 19.4118C50.9096 19.0196 50.3479 18.4575 49.9199 17.7255C49.5052 16.9804 49.2979 16.085 49.2979 15.0392V14.7451C49.2979 13.7124 49.5052 12.8235 49.9199 12.0784C50.3345 11.3333 50.8895 10.7647 51.585 10.3725C52.2805 9.98039 53.0429 9.78431 53.8721 9.78431C54.5141 9.78431 55.0491 9.86275 55.4771 10.0196C55.9185 10.1765 56.2796 10.3791 56.5604 10.6275C56.8413 10.8627 57.0553 11.1111 57.2024 11.3725H57.5234V6H59.5898V19.7255H57.5636V18.3529H57.2426C56.9884 18.7712 56.6006 19.1503 56.079 19.4902C55.5707 19.8301 54.8351 20 53.8721 20ZM54.4539 18.2353C55.35 18.2353 56.0856 17.9542 56.6608 17.3922C57.2492 16.8301 57.5435 16.0261 57.5435 14.9804V14.8039C57.5435 13.7712 57.2559 12.9739 56.6808 12.4118C56.1057 11.8497 55.3634 11.5686 54.4539 11.5686C53.5712 11.5686 52.8356 11.8497 52.2471 12.4118C51.672 12.9739 51.3844 13.7712 51.3844 14.8039V14.9804C51.3844 16.0261 51.672 16.8301 52.2471 17.3922C52.8356 17.9542 53.5712 18.2353 54.4539 18.2353Z" fill="black"/>
<path d="M62.6318 19.7255V10.0588H64.658V11.1961H64.979C65.1663 10.8562 65.4672 10.5556 65.8818 10.2941C66.2965 10.0327 66.8582 9.90196 67.5671 9.90196C68.3027 9.90196 68.8912 10.0523 69.3325 10.3529C69.7873 10.6405 70.1283 11.0131 70.3557 11.4706H70.6767C70.9041 11.0261 71.2317 10.6536 71.6597 10.3529C72.1011 10.0523 72.723 9.90196 73.5255 9.90196C74.1675 9.90196 74.7359 10.0327 75.2308 10.2941C75.7257 10.5425 76.1202 10.9216 76.4145 11.4314C76.7087 11.9281 76.8558 12.549 76.8558 13.2941V19.7255H74.7894V13.451C74.7894 12.8627 74.6223 12.4118 74.2879 12.098C73.9669 11.7712 73.5055 11.6078 72.9036 11.6078C72.2616 11.6078 71.7467 11.8105 71.3588 12.2157C70.9709 12.6209 70.777 13.2026 70.777 13.9608V19.7255H68.7106V13.451C68.7106 12.8627 68.5434 12.4118 68.209 12.098C67.8881 11.7712 67.4266 11.6078 66.8248 11.6078C66.1828 11.6078 65.6678 11.8105 65.28 12.2157C64.8921 12.6209 64.6982 13.2026 64.6982 13.9608V19.7255H62.6318Z" fill="black"/>
<path d="M79.8335 19.7255V10.0588H81.8999V19.7255H79.8335ZM80.8767 8.7451C80.4755 8.7451 80.1344 8.62092 79.8536 8.37255C79.5861 8.11111 79.4523 7.77778 79.4523 7.37255C79.4523 6.96732 79.5861 6.64052 79.8536 6.39216C80.1344 6.13072 80.4755 6 80.8767 6C81.2914 6 81.6324 6.13072 81.8999 6.39216C82.1674 6.64052 82.3012 6.96732 82.3012 7.37255C82.3012 7.77778 82.1674 8.11111 81.8999 8.37255C81.6324 8.62092 81.2914 8.7451 80.8767 8.7451Z" fill="black"/>
<path d="M84.9666 19.7255V10.0588H86.9929V11.5098H87.3139C87.5011 11.1176 87.8355 10.7516 88.317 10.4118C88.7985 10.0719 89.514 9.90196 90.4636 9.90196C91.2126 9.90196 91.8747 10.0654 92.4498 10.3922C93.0383 10.719 93.4997 11.183 93.8341 11.7843C94.1685 12.3725 94.3356 13.085 94.3356 13.9216V19.7255H92.2692V14.0784C92.2692 13.2418 92.0552 12.6275 91.6273 12.2353C91.1993 11.8301 90.6108 11.6275 89.8618 11.6275C89.0058 11.6275 88.317 11.902 87.7954 12.451C87.2871 13 87.033 13.7974 87.033 14.8431V19.7255H84.9666Z" fill="black"/>
<path d="M102.363 19.7255V6H107.94C108.796 6 109.559 6.16993 110.227 6.5098C110.909 6.8366 111.438 7.30719 111.812 7.92157C112.2 8.52288 112.394 9.24837 112.394 10.098V10.3529C112.394 11.2026 112.193 11.9346 111.792 12.549C111.404 13.1634 110.876 13.634 110.207 13.9608C109.538 14.2876 108.783 14.451 107.94 14.451H104.53V19.7255H102.363ZM104.53 12.5294H107.719C108.482 12.5294 109.09 12.3333 109.545 11.9412C110 11.549 110.227 11.0131 110.227 10.3333V10.1373C110.227 9.44444 110 8.90196 109.545 8.5098C109.09 8.11765 108.482 7.92157 107.719 7.92157H104.53V12.5294Z" fill="black"/>
<path d="M117.365 20C116.656 20 116.021 19.8824 115.459 19.6471C114.911 19.4118 114.47 19.0654 114.135 18.6078C113.814 18.1503 113.654 17.5948 113.654 16.9412C113.654 16.2745 113.814 15.7255 114.135 15.2941C114.47 14.8497 114.918 14.5163 115.479 14.2941C116.055 14.0719 116.703 13.9608 117.425 13.9608H120.435V13.3333C120.435 12.7712 120.261 12.3203 119.913 11.9804C119.565 11.6405 119.03 11.4706 118.308 11.4706C117.599 11.4706 117.058 11.634 116.683 11.9608C116.309 12.2876 116.061 12.7124 115.941 13.2353L114.015 12.6275C114.175 12.1046 114.43 11.634 114.777 11.2157C115.138 10.7843 115.613 10.4379 116.202 10.1765C116.79 9.91503 117.499 9.78431 118.328 9.78431C119.612 9.78431 120.622 10.1046 121.358 10.7451C122.093 11.3856 122.461 12.2941 122.461 13.4706V17.451C122.461 17.8431 122.648 18.0392 123.023 18.0392H123.865V19.7255H122.321C121.853 19.7255 121.471 19.6078 121.177 19.3725C120.883 19.1373 120.736 18.817 120.736 18.4118V18.3529H120.435C120.328 18.549 120.167 18.7778 119.953 19.0392C119.739 19.3007 119.425 19.5294 119.01 19.7255C118.596 19.9085 118.047 20 117.365 20ZM117.666 18.3333C118.495 18.3333 119.164 18.1046 119.672 17.6471C120.181 17.1765 120.435 16.5359 120.435 15.7255V15.5294H117.546C116.997 15.5294 116.556 15.6471 116.222 15.8824C115.887 16.1046 115.72 16.4379 115.72 16.8824C115.72 17.3268 115.894 17.6797 116.242 17.9412C116.59 18.2026 117.064 18.3333 117.666 18.3333Z" fill="black"/>
<path d="M125.875 19.7255V10.0588H127.901V11.5098H128.222C128.409 11.1176 128.744 10.7516 129.225 10.4118C129.707 10.0719 130.422 9.90196 131.372 9.90196C132.121 9.90196 132.783 10.0654 133.358 10.3922C133.946 10.719 134.408 11.183 134.742 11.7843C135.077 12.3725 135.244 13.085 135.244 13.9216V19.7255H133.177V14.0784C133.177 13.2418 132.963 12.6275 132.535 12.2353C132.107 11.8301 131.519 11.6275 130.77 11.6275C129.914 11.6275 129.225 11.902 128.703 12.451C128.195 13 127.941 13.7974 127.941 14.8431V19.7255H125.875Z" fill="black"/>
<path d="M142.752 20C141.749 20 140.872 19.7974 140.123 19.3922C139.375 18.9739 138.786 18.3922 138.358 17.6471C137.943 16.8889 137.736 16.0131 137.736 15.0196V14.7843C137.736 13.7778 137.943 12.902 138.358 12.1569C138.773 11.3987 139.348 10.817 140.083 10.4118C140.832 9.99346 141.695 9.78431 142.671 9.78431C143.621 9.78431 144.45 9.99346 145.159 10.4118C145.881 10.817 146.443 11.3856 146.844 12.1176C147.246 12.8497 147.446 13.7059 147.446 14.6863V15.451H139.843C139.869 16.3007 140.157 16.9804 140.705 17.4902C141.267 17.9869 141.963 18.2353 142.792 18.2353C143.568 18.2353 144.149 18.0654 144.537 17.7255C144.938 17.3856 145.246 16.9935 145.46 16.549L147.165 17.4118C146.978 17.7778 146.704 18.1634 146.343 18.5686C145.995 18.9739 145.534 19.3137 144.958 19.5882C144.383 19.8627 143.648 20 142.752 20ZM139.863 13.902H145.34C145.286 13.1699 145.019 12.6013 144.537 12.1961C144.056 11.7778 143.427 11.5686 142.651 11.5686C141.876 11.5686 141.24 11.7778 140.745 12.1961C140.264 12.6013 139.97 13.1699 139.863 13.902Z" fill="black"/>
<path d="M149.934 19.7255V6H152V19.7255H149.934Z" fill="black"/>
<path d="M19.0204 0.783396C19.0204 1.98354 20.381 3.92495 23.6122 7.34888C27.0476 10.9493 28 12.8554 28 16.1735C28 19.668 26.6054 22.5272 23.7143 24.8921C21.9796 26.3394 20.8912 26.3747 19.2585 24.9627L18 23.8685L16.6735 24.9627C15.0068 26.3394 14.0204 26.3394 12.2857 24.8921C9.39456 22.5272 8 19.668 8 16.1735C8.03401 13.7026 9.02041 10.7375 10.2109 9.60798C10.8571 9.0079 10.8912 9.0079 11.4014 9.74917C11.6735 10.1727 12.1837 10.6669 12.4898 10.8434C13.034 11.1258 13.068 11.0199 12.966 9.99626C12.6259 6.9959 14.4626 2.93659 17.0136 0.995185C18.7483 -0.275554 19.0204 -0.310852 19.0204 0.783396Z" fill="#FF4E00"/>
<path d="M13.5783 15.8054C12.4218 17.3232 12.864 18.5234 15.6191 21.3825L18 23.8534L20.381 21.3825C23.1361 18.5234 23.5783 17.3232 22.4218 15.8054C21.5715 14.7112 19.9728 14.5347 18.7483 15.4171C18.0681 15.9113 17.932 15.9113 17.2517 15.4171C16.0272 14.5347 14.4286 14.7112 13.5783 15.8054Z" fill="white"/>
</svg>
